<svg version="1.1" xmlns="http://www.w3.org/2000/svg" xmlns:xlink="http://www.w3.org/1999/xlink" x="0px" y="0px" viewBox="0 0 9.46 6.93">
<style type="text/css">
	.st0{fill-rule:evenodd;clip-rule:evenodd;fill:#364D8C;}
</style>
<defs>
</defs>
<path class="st0" d="M8.27,0H1.2C0.54,0,0,0.54,0,1.2v4.54c0,0.66,0.54,1.2,1.2,1.2h7.07c0.66,0,1.2-0.54,1.2-1.2V1.2
	C9.46,0.54,8.93,0,8.27,0L8.27,0z M8.08,0.77L4.73,3.36L1.38,0.77H8.08L8.08,0.77z M8.27,6.16H1.2c-0.23,0-0.42-0.19-0.42-0.42V1.27
	L4.5,4.15C4.56,4.2,4.65,4.23,4.73,4.23S4.9,4.2,4.97,4.15l3.72-2.88v4.46C8.69,5.97,8.5,6.16,8.27,6.16z"/>
</svg>
