<svg version="1.1" xmlns="http://www.w3.org/2000/svg" xmlns:xlink="http://www.w3.org/1999/xlink" x="0px" y="0px" viewBox="0 0 8.69 8.69">
<style type="text/css">
	.st0{fill:#364D8C;}
</style>
<defs>
</defs>
<g>
	<path class="st0" d="M7.41,0H1.27C0.57,0,0,0.57,0,1.27v6.14c0,0.7,0.57,1.27,1.27,1.27h6.14c0.7,0,1.27-0.57,1.27-1.27V1.27
		C8.69,0.57,8.12,0,7.41,0z M4.36,6.62c-1.26,0-2.29-1.03-2.29-2.29S3.1,2.04,4.36,2.04s2.29,1.03,2.29,2.29S5.62,6.62,4.36,6.62z
		 M6.91,2.55c-0.42,0-0.76-0.34-0.76-0.76s0.34-0.76,0.76-0.76c0.42,0,0.76,0.34,0.76,0.76S7.33,2.55,6.91,2.55z"/>
	<path class="st0" d="M4.36,2.75c-0.87,0-1.58,0.71-1.58,1.58s0.71,1.58,1.58,1.58S5.94,5.2,5.94,4.33S5.23,2.75,4.36,2.75z"/>
</g>
</svg>
