<svg version="1.1" xmlns="http://www.w3.org/2000/svg" xmlns:xlink="http://www.w3.org/1999/xlink" x="0px" y="0px" viewBox="0 0 7.17 10.26">
<style type="text/css">
	.st0{fill-rule:evenodd;clip-rule:evenodd;fill:#364D8C;}
</style>
<defs>
</defs>
<path class="st0" d="M7.07,3.58c0-1.92-1.57-3.49-3.49-3.49c-1.92,0-3.49,1.57-3.49,3.49c0,0.79,0.55,2.08,1.64,3.86
	C2.3,8.35,2.87,9.17,3.15,9.57H1.92v0.59h3.32V9.57H4.01c0.29-0.4,0.86-1.22,1.42-2.13C6.52,5.67,7.07,4.37,7.07,3.58L7.07,3.58z
	 M3.58,9.16c-0.99-1.38-2.9-4.32-2.9-5.58c0-1.6,1.3-2.9,2.9-2.9c1.6,0,2.9,1.3,2.9,2.9C6.48,4.84,4.57,7.78,3.58,9.16z"/>
<path class="st0" d="M6.98,3.58c0-0.94-0.38-1.79-1-2.4c-0.61-0.62-1.46-1-2.4-1c-0.94,0-1.79,0.38-2.4,1c-0.61,0.61-1,1.46-1,2.4
	c0,0.38,0.14,0.89,0.4,1.52c0.27,0.64,0.68,1.4,1.22,2.28C2.1,7.85,2.38,8.28,2.63,8.65c0.25,0.37,0.46,0.67,0.6,0.87l0.11,0.15
	H2.02v0.4h3.14v-0.4H3.83l0.11-0.15c0.14-0.2,0.35-0.5,0.6-0.87c0.25-0.37,0.53-0.8,0.81-1.25C5.9,6.51,6.3,5.74,6.58,5.11
	C6.84,4.47,6.98,3.97,6.98,3.58L6.98,3.58z M6.12,1.05C6.77,1.7,7.17,2.6,7.17,3.58c0,0.41-0.14,0.94-0.42,1.6
	C6.47,5.83,6.06,6.6,5.51,7.49C5.23,7.95,4.95,8.38,4.7,8.75C4.51,9.04,4.33,9.28,4.2,9.48h1.14v0.78H1.83V9.48h1.14
	c-0.14-0.19-0.31-0.44-0.5-0.73c-0.25-0.37-0.53-0.8-0.81-1.26C1.11,6.6,0.7,5.83,0.42,5.18C0.14,4.52,0,3.99,0,3.58
	C0,2.6,0.4,1.7,1.05,1.05C1.7,0.4,2.6,0,3.58,0C4.57,0,5.47,0.4,6.12,1.05L6.12,1.05z M3.51,9.22C2.92,8.39,2,7.02,1.36,5.78
	C0.91,4.91,0.59,4.11,0.59,3.58c0-0.83,0.34-1.57,0.88-2.12c0.54-0.54,1.29-0.88,2.12-0.88c0.83,0,1.57,0.34,2.12,0.88
	c0.54,0.54,0.88,1.29,0.88,2.12c0,0.53-0.32,1.33-0.77,2.19C5.16,7.02,4.25,8.39,3.66,9.22L3.58,9.32L3.51,9.22L3.51,9.22z
	 M1.52,5.69C1.09,4.85,0.78,4.08,0.78,3.58c0-0.77,0.31-1.48,0.82-1.98c0.51-0.51,1.21-0.82,1.98-0.82c0.77,0,1.48,0.31,1.98,0.82
	c0.51,0.51,0.82,1.21,0.82,1.98c0,0.49-0.31,1.27-0.75,2.11C5.03,6.87,4.17,8.17,3.58,9C3,8.17,2.14,6.87,1.52,5.69z"/>
<path class="st0" d="M3.58,1.74c-0.99,0-1.79,0.8-1.79,1.79c0,0.99,0.8,1.79,1.79,1.79s1.79-0.8,1.79-1.79
	C5.38,2.54,4.57,1.74,3.58,1.74L3.58,1.74z M3.58,4.73c-0.66,0-1.2-0.54-1.2-1.2c0-0.66,0.54-1.2,1.2-1.2c0.66,0,1.2,0.54,1.2,1.2
	C4.78,4.19,4.25,4.73,3.58,4.73z"/>
<path class="st0" d="M3.58,1.83c-0.47,0-0.89,0.19-1.2,0.5c-0.31,0.31-0.5,0.73-0.5,1.2c0,0.47,0.19,0.89,0.5,1.2
	c0.31,0.31,0.73,0.5,1.2,0.5s0.89-0.19,1.2-0.5c0.31-0.31,0.5-0.73,0.5-1.2c0-0.47-0.19-0.89-0.5-1.2C4.48,2.02,4.05,1.83,3.58,1.83
	L3.58,1.83z M2.25,2.2c0.34-0.34,0.81-0.55,1.33-0.55c0.52,0,0.99,0.21,1.33,0.55s0.55,0.81,0.55,1.33c0,0.52-0.21,0.99-0.55,1.33
	S4.1,5.42,3.58,5.42c-0.52,0-0.99-0.21-1.33-0.55C1.91,4.52,1.7,4.05,1.7,3.53C1.7,3.01,1.91,2.54,2.25,2.2L2.25,2.2z M3.58,4.82
	c-0.36,0-0.68-0.15-0.92-0.38C2.43,4.21,2.29,3.89,2.29,3.53c0-0.36,0.15-0.68,0.38-0.92C2.9,2.38,3.23,2.23,3.58,2.23
	c0.36,0,0.68,0.15,0.92,0.38c0.23,0.23,0.38,0.56,0.38,0.92c0,0.36-0.15,0.68-0.38,0.92C4.26,4.68,3.94,4.82,3.58,4.82L3.58,4.82z
	 M2.8,4.31c-0.2-0.2-0.32-0.48-0.32-0.78c0-0.31,0.12-0.58,0.32-0.78C3,2.55,3.28,2.42,3.58,2.42s0.58,0.12,0.78,0.32
	c0.2,0.2,0.32,0.48,0.32,0.78c0,0.31-0.12,0.58-0.32,0.78c-0.2,0.2-0.48,0.32-0.78,0.32S3,4.51,2.8,4.31z"/>
</svg>
