<svg version="1.1" xmlns="http://www.w3.org/2000/svg" xmlns:xlink="http://www.w3.org/1999/xlink" x="0px" y="0px" viewBox="0 0 8.69 8.69">
<style type="text/css">
	.st0{fill:#364D8C;}
</style>
<defs>
</defs>
<g>
	<g>
		<path class="st0" d="M4.35,3.47c0.48,0,0.87-0.39,0.87-0.88c0-0.49-0.39-0.87-0.87-0.87c-0.49,0-0.88,0.39-0.88,0.88
			C3.47,3.09,3.86,3.48,4.35,3.47z"/>
		<path class="st0" d="M7.37,0H1.32C0.59,0,0,0.59,0,1.32v6.05C0,8.1,0.59,8.69,1.32,8.69h6.05c0.73,0,1.32-0.59,1.32-1.32V1.32
			C8.69,0.59,8.1,0,7.37,0z M4.35,0.81c0.99,0,1.78,0.81,1.78,1.81C6.12,3.6,5.32,4.39,4.33,4.39c-0.98,0-1.78-0.81-1.77-1.79
			C2.56,1.6,3.36,0.81,4.35,0.81z M6.35,5.09c-0.22,0.22-0.48,0.39-0.77,0.5C5.3,5.7,5,5.75,4.7,5.79c0.05,0.05,0.07,0.07,0.09,0.1
			C5.2,6.3,5.61,6.71,6.02,7.12c0.14,0.14,0.17,0.31,0.09,0.48C6.02,7.77,5.84,7.89,5.66,7.87C5.54,7.86,5.45,7.81,5.37,7.73
			C5.06,7.42,4.75,7.11,4.45,6.8C4.36,6.71,4.32,6.72,4.24,6.8C3.93,7.12,3.62,7.44,3.3,7.75C3.16,7.89,2.99,7.91,2.83,7.83
			C2.65,7.75,2.54,7.57,2.55,7.39c0.01-0.12,0.07-0.21,0.15-0.3c0.4-0.4,0.8-0.81,1.21-1.21C3.93,5.86,3.96,5.83,4,5.79
			C3.45,5.73,2.95,5.6,2.53,5.27C2.48,5.22,2.42,5.18,2.38,5.14c-0.19-0.18-0.2-0.38-0.06-0.59c0.13-0.18,0.34-0.23,0.55-0.12
			c0.04,0.02,0.08,0.04,0.12,0.07c0.79,0.54,1.87,0.56,2.66,0.02c0.08-0.06,0.16-0.11,0.26-0.13C6.1,4.34,6.28,4.41,6.38,4.57
			C6.5,4.76,6.5,4.94,6.35,5.09z"/>
	</g>
</g>
</svg>
