<svg version="1.1" xmlns="http://www.w3.org/2000/svg" xmlns:xlink="http://www.w3.org/1999/xlink" x="0px" y="0px" viewBox="0 0 10.21 9.85">
<style type="text/css">
	.st0{fill-rule:evenodd;clip-rule:evenodd;fill:#364D8C;}
</style>
<defs>
</defs>
<path class="st0" d="M9.75,1.95C9.36,1.42,8.69,0.94,7.85,0.6C7.01,0.26,6.04,0.08,5.11,0.08c-0.93,0-1.9,0.18-2.74,0.52
	C1.53,0.93,0.85,1.41,0.46,1.94C0.09,2.45-0.02,2.99,0.15,3.52C0.26,3.87,0.58,4.1,0.95,4.1l1.26,0c0,0,0,0,0,0
	c0.25,0,0.49-0.11,0.65-0.3c0.16-0.19,0.22-0.44,0.18-0.68c0-0.01,0-0.01,0-0.02L2.96,2.84c0.37-0.17,1.2-0.51,2.14-0.51
	c0.95,0,1.78,0.34,2.14,0.52L7.18,3.11c0,0.01,0,0.01,0,0.02C7.13,3.37,7.2,3.62,7.35,3.81C7.51,4,7.75,4.11,8,4.11l1.26,0
	c0,0,0,0,0,0c0.37,0,0.69-0.23,0.8-0.57C10.23,3.01,10.12,2.46,9.75,1.95L9.75,1.95z M9.48,3.35C9.45,3.45,9.36,3.51,9.26,3.51h0
	L8,3.51c-0.07,0-0.14-0.03-0.19-0.09C7.79,3.39,7.75,3.33,7.76,3.25l0.13-0.48C7.92,2.64,7.87,2.5,7.75,2.43
	c-0.05-0.03-1.2-0.69-2.64-0.7c-0.01,0-0.02,0-0.02,0c-1.43,0-2.58,0.66-2.62,0.69c-0.12,0.07-0.17,0.2-0.14,0.33l0.12,0.48
	c0.01,0.09-0.03,0.15-0.05,0.18C2.35,3.47,2.28,3.5,2.21,3.5h0l-1.26,0c-0.1,0-0.2-0.06-0.23-0.16C0.62,3,0.69,2.64,0.95,2.29
	C1.63,1.35,3.38,0.68,5.1,0.68c0,0,0.01,0,0.01,0c1.72,0,3.47,0.69,4.15,1.63C9.52,2.66,9.59,3.01,9.48,3.35z"/>
<path class="st0" d="M9.69,1.99C9.5,1.74,9.24,1.49,8.92,1.26C8.61,1.04,8.23,0.84,7.82,0.67C7.4,0.5,6.96,0.37,6.5,0.29
	C6.04,0.2,5.57,0.15,5.11,0.15c-0.46,0-0.93,0.04-1.39,0.13C3.26,0.37,2.81,0.5,2.4,0.66C1.98,0.83,1.61,1.03,1.29,1.25
	C0.97,1.48,0.71,1.72,0.52,1.98c-0.18,0.25-0.29,0.5-0.34,0.76C0.13,2.99,0.14,3.25,0.23,3.5C0.27,3.66,0.37,3.79,0.5,3.88
	c0.13,0.09,0.28,0.14,0.45,0.14l1.26,0v0h0c0.11,0,0.22-0.02,0.33-0.07c0.1-0.05,0.19-0.12,0.26-0.2c0.07-0.09,0.12-0.19,0.15-0.29
	c0.03-0.11,0.03-0.22,0.01-0.33l0-0.01h0l0-0.01h0L2.87,2.8l0.06-0.03C3.12,2.68,3.42,2.55,3.8,2.45c0.38-0.11,0.83-0.19,1.31-0.19
	c0.48,0,0.93,0.09,1.31,0.2c0.38,0.11,0.68,0.24,0.87,0.33l0.06,0.03C7.31,2.92,7.28,3.03,7.25,3.13l0,0.01
	C7.23,3.25,7.23,3.36,7.26,3.47c0.03,0.11,0.08,0.2,0.15,0.29c0.07,0.09,0.16,0.16,0.26,0.2C7.77,4.01,7.89,4.03,8,4.03l1.26,0v0h0
	c0.17,0,0.32-0.05,0.45-0.14C9.84,3.8,9.93,3.67,9.98,3.52c0.08-0.25,0.1-0.51,0.05-0.76C9.98,2.5,9.87,2.24,9.69,1.99L9.69,1.99z
	 M9.01,1.14c0.33,0.23,0.6,0.49,0.8,0.76c0.19,0.26,0.32,0.54,0.37,0.82c0.05,0.28,0.04,0.56-0.05,0.84
	C10.07,3.75,9.95,3.9,9.8,4.01C9.64,4.12,9.46,4.19,9.26,4.19h0v0L8,4.18c-0.14,0-0.27-0.03-0.39-0.09C7.49,4.04,7.38,3.96,7.3,3.85
	c-0.09-0.1-0.15-0.22-0.18-0.35C7.08,3.38,7.08,3.25,7.1,3.11c0-0.04,0.05-0.18,0.06-0.22C6.98,2.81,6.7,2.7,6.37,2.6
	C6.01,2.5,5.57,2.41,5.11,2.41c-0.47,0-0.9,0.08-1.27,0.18C3.51,2.69,3.23,2.8,3.05,2.88l0.05,0.2h0l0,0.01h0l0,0.01
	C3.13,3.24,3.13,3.37,3.09,3.5C3.06,3.62,3,3.74,2.91,3.85c-0.09,0.1-0.2,0.19-0.31,0.24C2.48,4.14,2.34,4.17,2.21,4.17h0v0l-1.26,0
	c-0.2,0-0.39-0.06-0.54-0.17C0.26,3.89,0.14,3.73,0.08,3.55v0c-0.09-0.28-0.1-0.56-0.05-0.84C0.09,2.43,0.21,2.16,0.4,1.89
	c0.2-0.27,0.47-0.53,0.8-0.76C1.53,0.9,1.92,0.69,2.34,0.52c0.42-0.17,0.88-0.3,1.35-0.39C4.16,0.04,4.64,0,5.11,0
	c0.47,0,0.95,0.05,1.42,0.14c0.47,0.09,0.92,0.22,1.35,0.39C8.3,0.7,8.68,0.91,9.01,1.14L9.01,1.14z M9.55,3.38
	C9.53,3.44,9.49,3.49,9.44,3.53C9.39,3.56,9.32,3.59,9.26,3.59h0v0L8,3.58c-0.05,0-0.09-0.01-0.13-0.03h0
	C7.82,3.54,7.79,3.51,7.76,3.47C7.74,3.45,7.71,3.41,7.7,3.36C7.69,3.32,7.68,3.28,7.69,3.23l0,0l0.13-0.48
	c0.01-0.05,0.01-0.1-0.01-0.14C7.79,2.56,7.76,2.52,7.71,2.5l0,0C7.68,2.48,7.18,2.19,6.43,1.99c-0.39-0.1-0.84-0.18-1.32-0.18H5.09
	v0c-0.48,0-0.93,0.08-1.31,0.18c-0.74,0.2-1.25,0.49-1.28,0.5C2.46,2.51,2.42,2.55,2.4,2.6C2.39,2.64,2.38,2.69,2.39,2.74l0.12,0.48
	l0,0c0.01,0.06,0,0.11-0.02,0.15v0C2.49,3.41,2.47,3.44,2.45,3.46C2.42,3.5,2.38,3.52,2.34,3.54C2.3,3.56,2.25,3.57,2.21,3.57h0v0
	l-1.26,0c-0.07,0-0.13-0.02-0.18-0.06C0.71,3.48,0.67,3.42,0.65,3.36C0.59,3.18,0.59,2.99,0.62,2.8c0.04-0.19,0.13-0.37,0.26-0.56
	c0.35-0.48,0.97-0.89,1.72-1.18C3.35,0.77,4.23,0.6,5.1,0.6h0.01v0c0.87,0,1.75,0.17,2.49,0.47c0.75,0.29,1.37,0.71,1.72,1.19
	c0.13,0.19,0.22,0.37,0.26,0.56C9.62,3.01,9.61,3.19,9.55,3.38L9.55,3.38z M9.36,3.41c-0.03,0.02-0.06,0.03-0.1,0.03h0v0L8,3.43
	c-0.02,0-0.05-0.01-0.07-0.02C7.91,3.41,7.89,3.39,7.87,3.37C7.86,3.36,7.85,3.34,7.84,3.32c0-0.02-0.01-0.04,0-0.06l0.12-0.47
	c0.02-0.08,0.01-0.16-0.02-0.24C7.92,2.48,7.86,2.41,7.79,2.37v0C7.76,2.35,7.23,2.05,6.47,1.85c-0.4-0.11-0.86-0.19-1.36-0.19H5.09
	v0c-0.49,0-0.95,0.08-1.35,0.18c-0.76,0.2-1.28,0.5-1.31,0.52C2.35,2.4,2.3,2.47,2.27,2.54C2.24,2.61,2.23,2.7,2.25,2.78l0.12,0.47
	c0,0.03,0,0.05-0.01,0.07C2.35,3.34,2.34,3.35,2.34,3.36C2.32,3.38,2.3,3.4,2.28,3.41C2.26,3.42,2.23,3.42,2.21,3.42h0v0l-1.26,0
	c-0.04,0-0.07-0.01-0.1-0.03C0.83,3.37,0.81,3.35,0.8,3.32v0C0.75,3.16,0.74,3,0.77,2.83c0.04-0.16,0.11-0.33,0.24-0.5
	C1.34,1.88,1.94,1.48,2.66,1.2C3.39,0.92,4.25,0.75,5.1,0.75h0.01v0c0.85,0,1.71,0.17,2.44,0.46C8.27,1.49,8.87,1.89,9.2,2.35
	c0.12,0.17,0.2,0.34,0.24,0.5c0.03,0.16,0.03,0.32-0.03,0.48C9.4,3.36,9.38,3.39,9.36,3.41z"/>
<path class="st0" d="M7.95,5.39L7.01,4.41C6.95,4.35,6.87,4.32,6.79,4.32H6.19V3.91c0-0.17-0.13-0.3-0.3-0.3
	c-0.17,0-0.3,0.13-0.3,0.3v0.41H4.62V3.91c0-0.17-0.13-0.3-0.3-0.3c-0.17,0-0.3,0.13-0.3,0.3v0.41H3.42c-0.08,0-0.16,0.03-0.22,0.09
	L2.26,5.39C1.53,6.16,1.13,7.18,1.13,8.24v1.23c0,0.17,0.13,0.3,0.3,0.3h7.36c0.17,0,0.3-0.13,0.3-0.3V8.24
	C9.08,7.18,8.68,6.16,7.95,5.39L7.95,5.39z M1.73,9.18V8.24c0-0.91,0.35-1.77,0.97-2.43l0.85-0.89h3.12l0.85,0.89
	c0.63,0.66,0.97,1.52,0.97,2.43v0.93H1.73z"/>
<path class="st0" d="M7.89,5.45L6.95,4.46C6.93,4.44,6.91,4.42,6.88,4.41C6.85,4.4,6.82,4.39,6.79,4.39H6.11V3.91
	c0-0.06-0.02-0.12-0.07-0.16C6,3.71,5.95,3.68,5.89,3.68c-0.06,0-0.12,0.03-0.16,0.07c-0.04,0.04-0.07,0.1-0.07,0.16v0.48H4.55V3.91
	c0-0.06-0.03-0.12-0.07-0.16l0,0c-0.04-0.04-0.1-0.07-0.16-0.07c-0.06,0-0.12,0.03-0.16,0.07h0C4.12,3.79,4.1,3.85,4.1,3.91v0.48
	H3.42c-0.03,0-0.06,0.01-0.09,0.02C3.3,4.42,3.28,4.44,3.26,4.46L2.32,5.45C1.96,5.82,1.68,6.26,1.49,6.74
	C1.3,7.21,1.2,7.72,1.2,8.24v1.23c0,0.06,0.02,0.12,0.07,0.16C1.31,9.68,1.36,9.7,1.43,9.7h7.36c0.06,0,0.12-0.02,0.16-0.07h0
	c0.04-0.04,0.07-0.1,0.07-0.16V8.24h0c0-0.52-0.1-1.03-0.29-1.51C8.53,6.26,8.25,5.82,7.89,5.45L7.89,5.45z M7.06,4.36L8,5.34
	c0.37,0.39,0.66,0.85,0.86,1.34c0.2,0.49,0.3,1.02,0.3,1.56h0v1.23c0,0.1-0.04,0.2-0.11,0.27C8.98,9.81,8.89,9.85,8.78,9.85H1.43
	c-0.1,0-0.2-0.04-0.27-0.11l0,0C1.09,9.67,1.05,9.58,1.05,9.48V8.24c0-0.54,0.1-1.07,0.3-1.56c0.2-0.49,0.49-0.95,0.86-1.34
	l0.94-0.98c0.04-0.04,0.08-0.07,0.12-0.09c0.05-0.02,0.1-0.03,0.15-0.03h0.53V3.91c0-0.1,0.04-0.2,0.11-0.27
	c0.07-0.07,0.16-0.11,0.27-0.11c0.1,0,0.2,0.04,0.27,0.11l0,0C4.66,3.71,4.7,3.8,4.7,3.91v0.33h0.81V3.91c0-0.1,0.04-0.2,0.11-0.27
	c0.07-0.07,0.16-0.11,0.27-0.11c0.1,0,0.2,0.04,0.27,0.11C6.22,3.71,6.26,3.8,6.26,3.91v0.33h0.53c0.05,0,0.1,0.01,0.15,0.03
	C6.99,4.29,7.03,4.32,7.06,4.36L7.06,4.36z M1.65,9.18V8.24c0-0.46,0.09-0.92,0.26-1.34c0.17-0.42,0.42-0.81,0.74-1.15l0.87-0.91
	h3.18l0.87,0.91C7.89,6.09,8.13,6.48,8.3,6.9c0.17,0.42,0.26,0.87,0.26,1.34v1.01H1.65V9.18L1.65,9.18z M1.8,8.24
	c0-0.45,0.08-0.88,0.25-1.28c0.16-0.4,0.4-0.78,0.71-1.1l0.83-0.87h3.05l0.83,0.87C7.76,6.18,8,6.55,8.16,6.96
	c0.16,0.4,0.25,0.84,0.25,1.28V9.1H1.8V8.24z"/>
<path class="st0" d="M5.1,5.54c-0.87,0-1.57,0.7-1.57,1.57c0,0.87,0.7,1.57,1.57,1.57s1.57-0.7,1.57-1.57
	C6.68,6.24,5.97,5.54,5.1,5.54L5.1,5.54z M5.1,8.08c-0.54,0-0.97-0.44-0.97-0.97c0-0.54,0.44-0.97,0.97-0.97s0.97,0.44,0.97,0.97
	C6.08,7.64,5.64,8.08,5.1,8.08z"/>
<path class="st0" d="M5.1,5.61c-0.41,0-0.79,0.17-1.06,0.44C3.78,6.32,3.61,6.7,3.61,7.11c0,0.41,0.17,0.79,0.44,1.06
	C4.32,8.44,4.69,8.6,5.1,8.6s0.79-0.17,1.06-0.44C6.43,7.89,6.6,7.52,6.6,7.11c0-0.41-0.17-0.79-0.44-1.06
	C5.89,5.78,5.52,5.61,5.1,5.61L5.1,5.61z M3.94,5.94c0.3-0.3,0.71-0.48,1.16-0.48c0.45,0,0.87,0.18,1.16,0.48
	c0.3,0.3,0.48,0.71,0.48,1.16c0,0.45-0.18,0.87-0.48,1.16c-0.3,0.3-0.71,0.48-1.16,0.48c-0.45,0-0.87-0.18-1.16-0.48
	c-0.3-0.3-0.48-0.71-0.48-1.16C3.46,6.65,3.64,6.24,3.94,5.94L3.94,5.94z M5.1,8.15c-0.29,0-0.55-0.12-0.74-0.31
	C4.18,7.66,4.06,7.4,4.06,7.11c0-0.29,0.12-0.55,0.31-0.74C4.55,6.18,4.82,6.06,5.1,6.06s0.55,0.12,0.74,0.31
	c0.19,0.19,0.31,0.45,0.31,0.74c0,0.29-0.12,0.55-0.31,0.74C5.65,8.04,5.39,8.15,5.1,8.15L5.1,8.15z M4.47,7.74
	C4.31,7.58,4.21,7.36,4.21,7.11c0-0.25,0.1-0.47,0.26-0.63C4.63,6.31,4.86,6.21,5.1,6.21c0.25,0,0.47,0.1,0.63,0.26
	C5.9,6.64,6,6.86,6,7.11c0,0.25-0.1,0.47-0.26,0.63C5.58,7.9,5.35,8,5.1,8S4.63,7.9,4.47,7.74z"/>
</svg>
