<svg version="1.1" xmlns="http://www.w3.org/2000/svg" xmlns:xlink="http://www.w3.org/1999/xlink" x="0px" y="0px" viewBox="0 0 9.5 9.5">
<style type="text/css">
	.st0{fill-rule:evenodd;clip-rule:evenodd;fill:#364D8C;}
</style>
<defs>
</defs>
<path class="st0" d="M8.88,2.64c-0.77-1.5-2.33-2.53-4.13-2.53c-1.8,0-3.36,1.03-4.13,2.53c0,0.01-0.01,0.01-0.01,0.02
	C0.29,3.29,0.11,4,0.11,4.75c0,0.75,0.18,1.46,0.5,2.09c0,0.01,0.01,0.01,0.01,0.02c0.77,1.5,2.33,2.53,4.13,2.53
	c1.8,0,3.36-1.03,4.13-2.53c0-0.01,0.01-0.01,0.01-0.02c0.32-0.63,0.5-1.34,0.5-2.09s-0.18-1.46-0.5-2.09
	C8.89,2.65,8.88,2.65,8.88,2.64L8.88,2.64z M8.57,6.56H6.8c0.1-0.5,0.16-1.04,0.17-1.61h2.01C8.95,5.53,8.8,6.07,8.57,6.56
	L8.57,6.56z M4.75,8.98c-0.64,0-1.21-0.82-1.53-2.02h3.07C5.96,8.17,5.39,8.98,4.75,8.98L4.75,8.98L4.75,8.98z M3.12,6.56
	c-0.1-0.5-0.17-1.04-0.18-1.61h3.62C6.55,5.52,6.48,6.07,6.38,6.56H3.12L3.12,6.56z M0.53,4.95h2.01C2.55,5.52,2.6,6.07,2.7,6.56
	H0.93C0.69,6.07,0.55,5.53,0.53,4.95L0.53,4.95z M0.93,2.93H2.7c-0.1,0.5-0.16,1.04-0.17,1.61H0.53C0.55,3.97,0.69,3.43,0.93,2.93
	L0.93,2.93z M4.75,0.52c0.64,0,1.21,0.82,1.53,2.02H3.22C3.54,1.33,4.11,0.52,4.75,0.52L4.75,0.52L4.75,0.52z M6.38,2.93
	c0.1,0.5,0.17,1.04,0.18,1.61H2.94c0.01-0.57,0.08-1.12,0.18-1.61H6.38L6.38,2.93z M6.96,4.55C6.95,3.97,6.89,3.43,6.8,2.93h1.77
	c0.24,0.49,0.38,1.04,0.4,1.61H6.96L6.96,4.55z M8.35,2.53H6.71c-0.2-0.8-0.52-1.45-0.9-1.88C6.88,0.93,7.78,1.61,8.35,2.53
	L8.35,2.53L8.35,2.53z M3.69,0.65C3.31,1.08,3,1.73,2.79,2.53H1.15C1.72,1.61,2.62,0.93,3.69,0.65L3.69,0.65z M1.15,6.97h1.64
	c0.2,0.8,0.52,1.45,0.9,1.88C2.62,8.57,1.72,7.88,1.15,6.97L1.15,6.97L1.15,6.97z M5.81,8.84c0.38-0.43,0.7-1.08,0.9-1.88h1.64
	C7.78,7.88,6.88,8.57,5.81,8.84L5.81,8.84z M5.81,8.84"/>
<path class="st0" d="M8.78,2.69C8.4,1.95,7.81,1.32,7.1,0.89C6.42,0.47,5.61,0.22,4.75,0.22c-0.86,0-1.67,0.24-2.36,0.66
	C1.68,1.32,1.1,1.95,0.72,2.69L0.71,2.71C0.55,3.02,0.43,3.36,0.35,3.7C0.27,4.04,0.22,4.39,0.22,4.75c0,0.36,0.04,0.71,0.12,1.05
	c0.08,0.35,0.21,0.68,0.36,0.99L0.72,6.8C1.1,7.55,1.68,8.17,2.39,8.61c0.69,0.42,1.49,0.66,2.36,0.66S6.42,9.03,7.1,8.61
	c0.71-0.43,1.29-1.06,1.67-1.8l0.01-0.02C8.95,6.47,9.07,6.14,9.15,5.8c0.08-0.33,0.12-0.69,0.12-1.05S9.23,4.04,9.15,3.7
	C9.07,3.36,8.95,3.02,8.79,2.71L8.78,2.69L8.78,2.69z M7.22,0.7c0.74,0.46,1.35,1.11,1.75,1.89l0.01,0.03
	c0.16,0.32,0.29,0.67,0.38,1.04C9.45,4,9.5,4.37,9.5,4.75c0,0.38-0.05,0.74-0.13,1.1C9.28,6.21,9.15,6.56,8.99,6.89L8.98,6.91
	C8.58,7.69,7.97,8.35,7.22,8.8C6.5,9.24,5.65,9.5,4.75,9.5S3,9.24,2.28,8.8C1.53,8.35,0.92,7.69,0.52,6.91L0.51,6.89
	C0.35,6.56,0.22,6.21,0.13,5.85C0.05,5.49,0,5.13,0,4.75C0,4.37,0.05,4,0.13,3.65c0.09-0.37,0.22-0.71,0.38-1.04l0.01-0.02
	c0.4-0.78,1.01-1.44,1.75-1.89C3,0.25,3.84,0,4.75,0C5.65,0,6.5,0.25,7.22,0.7L7.22,0.7z M8.57,6.68H6.66l0.03-0.13
	C6.74,6.29,6.77,6.03,6.8,5.77C6.83,5.5,6.85,5.23,6.85,4.95l0-0.11h2.24L9.08,4.96C9.07,5.25,9.03,5.53,8.96,5.81
	C8.89,6.09,8.79,6.36,8.67,6.61L8.64,6.68H8.57L8.57,6.68z M6.93,6.45C6.97,6.24,7,6.02,7.03,5.79c0.02-0.23,0.04-0.48,0.05-0.73
	h1.78C8.84,5.3,8.8,5.53,8.74,5.75C8.68,5.99,8.6,6.23,8.5,6.45H6.93L6.93,6.45z M4.75,9.1c-0.35,0-0.68-0.21-0.96-0.58
	C3.51,8.15,3.28,7.62,3.11,7L3.07,6.85h3.36L6.39,7C6.22,7.62,5.99,8.15,5.71,8.51C5.43,8.88,5.1,9.1,4.75,9.1L4.75,9.1z M3.97,8.38
	c-0.24-0.32-0.45-0.76-0.61-1.3h2.77c-0.16,0.53-0.37,0.98-0.61,1.3c-0.24,0.31-0.5,0.49-0.78,0.49C4.47,8.87,4.21,8.69,3.97,8.38
	L3.97,8.38z M3.01,6.59c-0.05-0.25-0.1-0.52-0.13-0.8C2.85,5.52,2.83,5.24,2.83,4.95l0-0.11h3.85l0,0.11
	C6.67,5.24,6.65,5.52,6.62,5.79c-0.03,0.28-0.07,0.54-0.13,0.8L6.47,6.68H3.03L3.01,6.59L3.01,6.59z M3.11,5.76
	C3.08,5.54,3.06,5.3,3.05,5.06h3.39C6.44,5.3,6.42,5.54,6.39,5.76C6.37,6,6.33,6.23,6.29,6.45H3.21C3.17,6.23,3.13,6,3.11,5.76
	L3.11,5.76z M0.53,4.84h2.12l0,0.11C2.65,5.23,2.67,5.5,2.7,5.77c0.03,0.27,0.07,0.53,0.12,0.78l0.03,0.13H0.86L0.83,6.61
	C0.71,6.36,0.61,6.09,0.54,5.81C0.47,5.53,0.43,5.25,0.41,4.96L0.41,4.84H0.53L0.53,4.84z M2.43,5.06c0.01,0.25,0.02,0.49,0.05,0.73
	C2.5,6.02,2.53,6.24,2.57,6.45H1c-0.1-0.22-0.18-0.46-0.25-0.7C0.7,5.53,0.66,5.3,0.64,5.06H2.43L2.43,5.06z M0.93,2.82h1.91
	L2.81,2.96C2.76,3.2,2.72,3.46,2.7,3.73C2.67,4,2.65,4.27,2.65,4.55l0,0.11H0.41l0.01-0.12c0.01-0.29,0.06-0.58,0.12-0.85
	c0.07-0.28,0.17-0.55,0.29-0.81l0.03-0.06H0.93L0.93,2.82z M2.57,3.05C2.53,3.26,2.5,3.48,2.47,3.71C2.45,3.94,2.43,4.19,2.43,4.44
	H0.64C0.66,4.2,0.7,3.97,0.76,3.75C0.82,3.51,0.9,3.27,1,3.05H2.57L2.57,3.05z M4.75,0.4c0.35,0,0.68,0.21,0.96,0.58
	C5.99,1.35,6.22,1.88,6.39,2.5l0.04,0.14H3.07L3.11,2.5c0.17-0.63,0.41-1.15,0.68-1.52C4.07,0.62,4.4,0.4,4.75,0.4L4.75,0.4z
	 M5.53,1.12c0.24,0.32,0.45,0.76,0.61,1.3H3.36c0.16-0.53,0.37-0.98,0.61-1.3c0.24-0.31,0.5-0.49,0.78-0.49
	C5.02,0.63,5.29,0.81,5.53,1.12L5.53,1.12z M6.49,2.91c0.05,0.25,0.1,0.52,0.13,0.8c0.03,0.27,0.05,0.55,0.05,0.84l0,0.11H2.83
	l0-0.11c0.01-0.29,0.03-0.57,0.05-0.84c0.03-0.28,0.07-0.54,0.13-0.8l0.02-0.09h3.44L6.49,2.91L6.49,2.91z M6.39,3.73
	c0.03,0.23,0.04,0.46,0.05,0.7H3.05c0.01-0.24,0.03-0.47,0.05-0.7C3.13,3.5,3.17,3.27,3.21,3.05h3.08C6.33,3.27,6.37,3.5,6.39,3.73
	L6.39,3.73z M6.85,4.55C6.85,4.27,6.83,4,6.8,3.73C6.77,3.46,6.74,3.2,6.69,2.96L6.66,2.82h1.98l0.03,0.06
	c0.12,0.26,0.22,0.53,0.29,0.81c0.07,0.27,0.11,0.56,0.12,0.85l0.01,0.12H6.85L6.85,4.55L6.85,4.55z M7.03,3.71
	C7,3.48,6.97,3.26,6.93,3.05H8.5c0.1,0.22,0.18,0.46,0.25,0.7C8.8,3.97,8.84,4.2,8.85,4.44H7.07C7.07,4.19,7.05,3.94,7.03,3.71
	L7.03,3.71z M8.35,2.64H6.62L6.6,2.56C6.5,2.17,6.37,1.81,6.22,1.5c-0.15-0.31-0.32-0.57-0.5-0.77L5.47,0.45l0.36,0.09
	c0.55,0.14,1.05,0.39,1.49,0.71C7.77,1.59,8.15,2,8.44,2.47l0.11,0.17H8.35L8.35,2.64z M6.79,2.42C6.69,2.05,6.57,1.7,6.42,1.4
	c-0.09-0.2-0.2-0.38-0.31-0.54C6.5,1,6.86,1.2,7.19,1.44c0.37,0.27,0.69,0.61,0.95,0.98H6.79L6.79,2.42z M3.78,0.73
	C3.59,0.93,3.42,1.19,3.28,1.5C3.13,1.81,3,2.17,2.9,2.56L2.88,2.64H0.95l0.11-0.17C1.35,2,1.73,1.58,2.18,1.26
	c0.44-0.33,0.94-0.57,1.49-0.71l0.36-0.09L3.78,0.73L3.78,0.73z M3.08,1.4C2.93,1.7,2.81,2.05,2.71,2.42H1.36
	c0.26-0.38,0.58-0.71,0.95-0.98C2.63,1.2,3,1,3.38,0.87C3.27,1.03,3.17,1.21,3.08,1.4L3.08,1.4z M1.15,6.85h1.73L2.9,6.94
	C3,7.33,3.13,7.69,3.28,8c0.15,0.31,0.32,0.57,0.5,0.77l0.25,0.28L3.67,8.95C3.12,8.81,2.62,8.57,2.18,8.24
	C1.73,7.91,1.35,7.5,1.05,7.03L0.95,6.85H1.15L1.15,6.85z M2.71,7.08c0.1,0.37,0.22,0.71,0.37,1.02c0.09,0.2,0.2,0.38,0.31,0.54
	C3,8.5,2.63,8.3,2.31,8.06c-0.37-0.27-0.69-0.6-0.95-0.98H2.71L2.71,7.08z M5.72,8.77C5.91,8.56,6.07,8.3,6.22,8
	C6.37,7.69,6.5,7.33,6.6,6.94l0.02-0.08h1.93L8.44,7.03C8.15,7.5,7.77,7.91,7.32,8.24C6.88,8.57,6.38,8.81,5.83,8.95L5.47,9.05
	L5.72,8.77L5.72,8.77z M6.42,8.09c0.14-0.3,0.27-0.64,0.37-1.02h1.35C7.88,7.46,7.56,7.79,7.19,8.06C6.86,8.3,6.5,8.5,6.11,8.63
	C6.22,8.47,6.33,8.29,6.42,8.09z"/>
</svg>
