<svg width="150" height="150" viewBox="0 0 150 150" fill="none" xmlns="http://www.w3.org/2000/svg">
<rect width="150" height="150" fill="white"/>
<path d="M97.6134 69.5522C107.211 62.5523 113.462 51.2238 113.462 38.4615C113.462 17.2538 96.2077 0 75 0C53.7923 0 36.5385 17.2538 36.5385 38.4615C36.5385 51.2238 42.7884 62.5523 52.3866 69.5522C28.5272 78.6826 11.5386 101.816 11.5386 128.846C11.5386 140.51 21.0281 150 32.6924 150H117.308C128.972 150 138.461 140.51 138.461 128.846C138.461 101.816 121.473 78.6826 97.6134 69.5522ZM48.0771 38.4615C48.0771 23.6162 60.1547 11.5386 75 11.5386C89.8453 11.5386 101.923 23.6162 101.923 38.4615C101.923 53.3068 89.8453 65.3848 75 65.3848C60.1547 65.3848 48.0771 53.3068 48.0771 38.4615ZM117.308 138.461H32.6924C27.3905 138.461 23.0771 134.148 23.0771 128.846C23.0771 100.215 46.3693 76.9228 75.0003 76.9228C103.631 76.9228 126.923 100.215 126.923 128.846C126.923 134.148 122.61 138.461 117.308 138.461Z" fill="#364D8C"/>
</svg>
