<svg version="1.1" xmlns="http://www.w3.org/2000/svg" xmlns:xlink="http://www.w3.org/1999/xlink" x="0px" y="0px" viewBox="0 0 8.69 8.69">
<style type="text/css">
	.st0{fill:#364D8C;}
	.st1{fill:#FFFFFF;}
</style>
<defs>
</defs>
<g>
	<path class="st0" d="M7.67,0H1.02C0.46,0,0,0.46,0,1.02v6.65c0,0.56,0.46,1.02,1.02,1.02h6.65c0.56,0,1.02-0.46,1.02-1.02V1.02
		C8.69,0.46,8.23,0,7.67,0z"/>
</g>
<path class="st1" d="M6.77,4.95c0.18,0.16,0.36,0.33,0.52,0.52C7.39,5.6,7.5,5.73,7.58,5.88c0.09,0.18,0.01,0.37-0.15,0.38l-0.99,0
	C6.18,6.28,5.98,6.18,5.81,6.01c-0.14-0.14-0.26-0.29-0.4-0.43C5.36,5.52,5.3,5.46,5.23,5.42C5.12,5.34,4.96,5.39,4.9,5.51
	C4.82,5.65,4.8,5.8,4.8,5.96c-0.01,0.16-0.14,0.3-0.3,0.3c-0.51,0.03-0.98-0.05-1.43-0.3C2.68,5.74,2.37,5.42,2.11,5.07
	C1.6,4.37,1.21,3.61,0.86,2.83C0.79,2.68,0.87,2.56,1.03,2.55c0.32-0.01,0.65-0.01,0.97,0c0.13,0,0.21,0.07,0.26,0.19
	c0.18,0.42,0.38,0.83,0.64,1.2c0.08,0.11,0.16,0.23,0.27,0.31c0.1,0.07,0.21,0.03,0.26-0.07C3.46,4.09,3.48,4,3.49,3.91
	c0.03-0.3,0.03-0.6-0.02-0.9c-0.03-0.17-0.15-0.3-0.32-0.33C3.06,2.66,3.07,2.63,3.12,2.57c0.08-0.09,0.15-0.15,0.3-0.15l1.12,0
	c0.18,0.03,0.22,0.11,0.24,0.29l0,1.24c0,0.07,0.03,0.27,0.16,0.32C5.04,4.3,5.1,4.23,5.16,4.16c0.29-0.31,0.49-0.68,0.67-1.05
	C5.9,2.98,5.95,2.84,6,2.71C6.05,2.6,6.12,2.55,6.25,2.55l1.08,0c0.03,0,0.06,0,0.1,0.01C7.6,2.59,7.65,2.67,7.6,2.84
	C7.51,3.12,7.34,3.35,7.17,3.59C6.99,3.83,6.8,4.07,6.62,4.32C6.43,4.58,6.48,4.7,6.77,4.95z"/>
</svg>
