<svg version="1.1" xmlns="http://www.w3.org/2000/svg" xmlns:xlink="http://www.w3.org/1999/xlink" x="0px" y="0px" viewBox="0 0 9.22 9.22">
<style type="text/css">
	.st0{fill-rule:evenodd;clip-rule:evenodd;fill:#364D8C;}
</style>
<defs>
</defs>
<path class="st0" d="M9.17,4.48c0,2.45-2,4.43-4.46,4.43c-0.78,0-1.52-0.2-2.16-0.55L0.08,9.14l0.81-2.38
	C0.48,6.1,0.24,5.32,0.24,4.48c0-2.45,2-4.43,4.46-4.43C7.17,0.05,9.17,2.03,9.17,4.48L9.17,4.48z M4.71,0.76
	c-2.07,0-3.75,1.67-3.75,3.72c0,0.81,0.27,1.57,0.71,2.18L1.2,8.05l1.44-0.46C3.24,7.98,3.95,8.2,4.71,8.2
	c2.07,0,3.75-1.67,3.75-3.72C8.46,2.43,6.78,0.76,4.71,0.76z"/>
<path class="st0" d="M9.22,4.48c0,1.24-0.51,2.36-1.32,3.17C7.08,8.46,5.95,8.96,4.71,8.96c-0.39,0-0.77-0.05-1.13-0.14
	C3.22,8.73,2.87,8.59,2.55,8.41L0,9.22l0.83-2.45c-0.2-0.34-0.36-0.7-0.47-1.09C0.25,5.3,0.19,4.9,0.19,4.48
	c0-1.24,0.51-2.36,1.32-3.17C2.33,0.5,3.46,0,4.71,0C5.96,0,7.08,0.5,7.9,1.31C8.72,2.12,9.22,3.24,9.22,4.48L9.22,4.48z M7.83,7.58
	c0.8-0.79,1.29-1.89,1.29-3.1c0-1.21-0.49-2.3-1.29-3.1C7.03,0.59,5.93,0.1,4.71,0.1c-1.22,0-2.32,0.49-3.12,1.28
	C0.79,2.18,0.3,3.27,0.3,4.48c0,0.41,0.06,0.8,0.16,1.17C0.56,6.04,0.72,6.4,0.93,6.74l0.01,0.02L0.16,9.07l2.4-0.76l0.02,0.01
	C2.9,8.49,3.24,8.63,3.61,8.72c0.35,0.09,0.72,0.14,1.1,0.14C5.93,8.86,7.03,8.37,7.83,7.58L7.83,7.58z M4.71,0.81
	c-1.02,0-1.95,0.41-2.62,1.08c-0.67,0.67-1.09,1.58-1.09,2.6c0,0.39,0.06,0.78,0.18,1.13c0.12,0.37,0.3,0.71,0.52,1.02l0.02,0.02
	L1.28,7.97l1.37-0.44l0.02,0.01C2.97,7.74,3.3,7.89,3.64,8c0.34,0.1,0.69,0.15,1.06,0.15c1.02,0,1.95-0.41,2.62-1.08
	C8,6.41,8.41,5.49,8.41,4.48v0c0-1.01-0.41-1.93-1.09-2.59C6.65,1.22,5.73,0.81,4.71,0.81L4.71,0.81L4.71,0.81z M2.02,1.81
	C1.33,2.5,0.9,3.44,0.9,4.48c0,0.41,0.06,0.8,0.19,1.16c0.12,0.37,0.3,0.72,0.52,1.03L1.12,8.12l1.51-0.48
	c0.3,0.19,0.63,0.35,0.98,0.45c0.35,0.1,0.71,0.16,1.09,0.16c1.05,0,2-0.42,2.69-1.11c0.69-0.68,1.12-1.63,1.12-2.67v0
	c0-1.04-0.43-1.98-1.12-2.67C6.71,1.13,5.76,0.71,4.71,0.71h0C3.66,0.71,2.71,1.13,2.02,1.81z"/>
<path class="st0" d="M6.96,5.5c-0.03-0.04-0.1-0.07-0.21-0.13C6.64,5.32,6.11,5.06,6,5.02C5.9,4.98,5.83,4.97,5.76,5.07
	C5.69,5.18,5.48,5.43,5.41,5.5C5.35,5.57,5.28,5.58,5.18,5.53C5.07,5.47,4.71,5.36,4.29,4.99C3.97,4.7,3.75,4.35,3.69,4.24
	C3.62,4.13,3.68,4.07,3.73,4.02C3.78,3.97,3.84,3.89,3.9,3.83c0.05-0.06,0.07-0.11,0.11-0.18C4.04,3.57,4.03,3.51,4,3.46
	C3.97,3.4,3.75,2.87,3.66,2.65C3.57,2.43,3.48,2.47,3.42,2.47c-0.06,0-0.14-0.01-0.21-0.01c-0.07,0-0.19,0.03-0.29,0.14
	C2.81,2.7,2.53,2.97,2.53,3.5c0,0.53,0.39,1.05,0.45,1.12c0.06,0.07,0.76,1.2,1.87,1.64C5.96,6.7,5.96,6.55,6.16,6.53
	c0.2-0.02,0.65-0.26,0.74-0.52C6.99,5.76,6.99,5.55,6.96,5.5z"/>
<path class="st0" d="M6.92,5.53C6.91,5.5,6.86,5.48,6.79,5.45C6.78,5.44,6.76,5.43,6.73,5.42C6.66,5.39,6.44,5.27,6.24,5.18
	c-0.12-0.05-0.22-0.1-0.25-0.11C5.94,5.05,5.91,5.04,5.88,5.04c-0.03,0-0.05,0.02-0.08,0.06C5.77,5.15,5.72,5.21,5.67,5.28
	c-0.09,0.1-0.18,0.21-0.22,0.26C5.41,5.58,5.37,5.61,5.32,5.61c-0.05,0.01-0.1-0.01-0.16-0.04l0,0C5.13,5.56,5.11,5.55,5.08,5.54
	c-0.16-0.07-0.46-0.2-0.82-0.51C4.13,4.92,4.02,4.79,3.93,4.68C3.78,4.5,3.68,4.33,3.64,4.26C3.6,4.19,3.6,4.14,3.62,4.09
	C3.64,4.04,3.67,4.01,3.7,3.98C3.73,3.95,3.77,3.91,3.8,3.86c0.02-0.02,0.04-0.04,0.06-0.07v0C3.9,3.74,3.92,3.71,3.95,3.65
	l0.01-0.03C3.98,3.6,3.98,3.57,3.98,3.55c0-0.02-0.01-0.05-0.02-0.07C3.94,3.44,3.84,3.21,3.75,3C3.7,2.86,3.64,2.73,3.62,2.67l0,0
	C3.55,2.51,3.49,2.51,3.44,2.52c-0.01,0-0.02,0-0.03,0c-0.03,0-0.07,0-0.1,0c-0.03,0-0.07,0-0.11,0c-0.04,0-0.08,0.01-0.14,0.03
	C3.03,2.56,2.99,2.59,2.95,2.63L2.93,2.65C2.82,2.77,2.58,3.02,2.58,3.5c0,0.52,0.38,1.02,0.44,1.09l0,0
	C3.02,4.6,3.03,4.61,3.04,4.63c0.14,0.21,0.81,1.19,1.82,1.58C5.77,6.57,5.92,6.53,6.06,6.5c0.03-0.01,0.06-0.01,0.1-0.02
	c0.1-0.01,0.28-0.09,0.43-0.19C6.71,6.21,6.81,6.1,6.85,6C6.89,5.9,6.91,5.8,6.92,5.71C6.93,5.61,6.93,5.54,6.92,5.53L6.92,5.53z
	 M6.84,5.36C6.92,5.4,6.98,5.43,7.01,5.47l0,0C7.03,5.51,7.04,5.6,7.02,5.73c-0.01,0.09-0.03,0.2-0.08,0.31
	C6.9,6.16,6.78,6.28,6.65,6.37c-0.17,0.12-0.36,0.2-0.48,0.21c-0.03,0-0.06,0.01-0.08,0.02C5.93,6.63,5.77,6.67,4.83,6.31
	C3.79,5.9,3.11,4.9,2.96,4.69C2.95,4.67,2.94,4.66,2.94,4.65l0,0C2.88,4.58,2.48,4.05,2.48,3.5c0-0.52,0.26-0.79,0.37-0.92
	l0.02-0.02c0.05-0.05,0.1-0.09,0.15-0.11c0.07-0.03,0.13-0.04,0.18-0.04c0.04,0,0.08,0,0.11,0c0.03,0,0.06,0,0.09,0
	c0.01,0,0.01,0,0.02,0c0.08,0,0.18-0.01,0.27,0.21c0.04,0.1,0.09,0.21,0.14,0.33c0.09,0.22,0.18,0.44,0.2,0.48
	C4.06,3.46,4.07,3.5,4.08,3.54c0,0.04,0,0.08-0.02,0.13L4.04,3.7c-0.03,0.06-0.05,0.1-0.1,0.16C3.92,3.88,3.9,3.9,3.88,3.92
	C3.84,3.97,3.8,4.02,3.77,4.05C3.75,4.08,3.72,4.1,3.71,4.12C3.7,4.15,3.71,4.17,3.73,4.21v0c0.04,0.07,0.14,0.23,0.28,0.41
	c0.09,0.11,0.2,0.23,0.32,0.33c0.34,0.3,0.64,0.43,0.79,0.5C5.15,5.46,5.18,5.48,5.2,5.48C5.24,5.51,5.28,5.52,5.3,5.51
	c0.02,0,0.05-0.02,0.07-0.04c0.04-0.05,0.13-0.15,0.22-0.26c0.05-0.06,0.1-0.13,0.13-0.17l0,0c0.05-0.07,0.09-0.1,0.15-0.1
	c0.05-0.01,0.1,0.01,0.16,0.03c0.04,0.01,0.14,0.06,0.26,0.12c0.19,0.09,0.42,0.2,0.49,0.24L6.84,5.36z"/>
</svg>
