<svg width="18" height="18" viewBox="0 0 18 18" fill="none" xmlns="http://www.w3.org/2000/svg">
<path d="M5.994 2.61897C5.88863 2.73635 5.83594 2.86535 5.83594 3.00597C5.83594 3.1466 5.88863 3.2696 5.994 3.37497L11.4784 8.99997L5.994 14.625C5.88863 14.7303 5.83594 14.8533 5.83594 14.994C5.83594 15.1346 5.88863 15.2576 5.994 15.363C6.09938 15.4683 6.22238 15.521 6.363 15.521C6.50363 15.521 6.62663 15.4742 6.732 15.3804L12.5505 9.38641C12.6559 9.28103 12.7086 9.15203 12.7086 8.99941C12.7086 8.84678 12.6559 8.71778 12.5505 8.61241L6.732 2.61841C6.62663 2.52466 6.50363 2.47778 6.363 2.47778C6.22238 2.47778 6.09938 2.52466 5.994 2.61841V2.61897Z" fill="#000"/>
</svg>
