<svg width="18" height="18" viewBox="0 0 18 18" fill="none" xmlns="http://www.w3.org/2000/svg">
<path d="M10.705 2.61907L4.88646 8.61307C4.78108 8.71844 4.72839 8.84444 4.72839 8.99107C4.72839 9.13769 4.78108 9.26951 4.88646 9.38651L10.705 15.3805C10.8103 15.4743 10.9333 15.5211 11.074 15.5211C11.2146 15.5211 11.3376 15.4684 11.443 15.3631C11.5483 15.2577 11.601 15.1347 11.601 14.9941C11.601 14.8534 11.5483 14.7304 11.443 14.6251L5.95858 9.00007L11.443 3.37507C11.5483 3.26969 11.601 3.14669 11.601 3.00607C11.601 2.86544 11.5483 2.74244 11.443 2.63707C11.3376 2.53169 11.2146 2.479 11.074 2.479C10.9333 2.479 10.8103 2.52588 10.705 2.61963V2.61907Z" fill="white"/>
</svg>
