<svg fill="none" viewBox="0 0 50 50" id="digital_pipeline--amobutton--messenger" xmlns="http://www.w3.org/2000/svg"><path fill-rule="evenodd" clip-rule="evenodd" d="M25 11c-8.45 0-15 5.984-15 14.066 0 4.227 1.793 7.88 4.711 10.403.245.213.393.508.405.826l.081 2.58c.027.822.906 1.356 1.684 1.026l2.976-1.269c.254-.108.534-.128.8-.058 1.367.364 2.825.557 4.343.557 8.45 0 15-5.984 15-14.066C40 16.985 33.45 11 25 11zm9.006 10.821L29.6 28.578c-.7 1.074-2.204 1.342-3.254.58l-3.504-2.54a.926.926 0 00-1.083.003l-4.733 3.471c-.63.464-1.458-.268-1.032-.916L20.4 22.42c.7-1.073 2.204-1.342 3.254-.58l3.504 2.54a.926.926 0 001.083-.002l4.733-3.472c.63-.464 1.458.268 1.032.916z" fill="#fff"></path></svg>