<svg version="1.1" xmlns="http://www.w3.org/2000/svg" x="0px" y="0px" viewBox="0 0 75.63 77.25">
<style type="text/css">
	.st0{fill-rule:evenodd;clip-rule:evenodd;fill:#E5C281;}
	.st1{fill:#364D8C;}
</style>
<polygon class="st0" points="20.05,54.18 23.42,54.2 23.42,37.35 33.45,31.14 38.82,27.8 38.82,49.33 33.45,49.33 33.45,33.61 
	30.08,35.7 30.08,52.7 42.19,52.7 42.19,21.75 33.45,27.17 33.45,16.06 52.06,5.47 51.9,60.01 55.27,60 55.27,0 30.08,14.08 
	30.08,29.26 30.07,29.26 29.82,29.42 20.05,35.47 20.05,54.18 "/>
<path class="st1" d="M7.2,61.6c1.22-0.66,6.19-2.01,9.72-2.03c7.94-0.12,14.5,3.32,17.29,4.26c3.49,1.33,8.06,2.58,10.74,3.06
	c7.67,1.37,16.12-3.68,16.12-3.68c-0.03-0.05-2.29,0.82-8.14,1.22c-5.84,0.41-11.46-2.01-17.96-4.18
	C28.47,58.07,24.9,55.37,11,58.11c-1.53,0.33-3,0.81-5.08,1.6C1.85,53.68,0,47.23,0,39.44c0-10.42,4.25-19.87,11.1-26.72
	c6.85-6.85,16.3-11.1,26.72-11.1c3.17,0,6.26,0.39,9.2,1.13c0.78,0.2,1.47,0.4,2.2,0.63c-2.31,1.29-4.61,2.58-6.92,3.87
	c-0.87-0.28-1.86-0.38-2.93-0.43c-0.52-0.02-1.03-0.04-1.56-0.04c-8.99,0-17.16,3.67-23.07,9.58c-5.92,5.92-9.58,14.08-9.58,23.07
	c0,5.92,1.73,11.63,4.51,16.42c4.04-1.25,7.71-1.61,10.38-1.68l3.37,0.02c13.03,0.57,17.76,5.44,28.47,5.81c0,0,3.37-0.01,3.37-0.01
	c0.57-0.01,1.13-0.04,1.6-0.07c11.37-0.64,13.71-1.64,13.71-1.64c-1.67,2.88-3.7,5.53-6.04,7.86c-6.85,6.85-16.3,11.09-26.72,11.09
	S17.95,73.01,11.1,66.16C9.68,64.74,8.38,63.22,7.2,61.6L7.2,61.6z"/>
<path class="st1" d="M57.04,6.89c2.74,1.63,5.26,3.59,7.5,5.83c6.85,6.85,11.09,16.3,11.09,26.72c0,4.32-0.73,8.48-2.08,12.35
	c-0.88,2.34-1.8,4.45-1.8,4.45s-0.77,0.35-2.25,0.74c-1.48,0.39-4.76,0.63-4.76,0.63s1.16-1.5,1.59-2.16
	c0.44-0.67,0.91-1.55,1.36-2.5c2.01-4.24,2.77-8.52,2.77-13.51c0-8.99-3.67-17.16-9.58-23.07c-1.2-1.2-2.48-2.3-3.85-3.3
	c-0.58-0.38-1.17-0.78-1.77-1.08V5.86L57.04,6.89L57.04,6.89z"/>
</svg>
