<svg version="1.1" xmlns="http://www.w3.org/2000/svg" x="0px" y="0px" viewBox="0 0 488.06 77.25">
<style type="text/css">
	.st0{fill:#E5C281;}
	.st1{fill:#364D8C;}
	.st2{fill-rule:evenodd;clip-rule:evenodd;fill:#E5C281;}
</style>
<path class="st1" d="M19.49,59.87H0.07C0.03,59.87,0,59.84,0,59.8V17.27c0-0.04,0.03-0.07,0.07-0.07h32.39
	c0.03,0,0.06,0.03,0.06,0.07v6.02c0,0.04-0.03,0.07-0.06,0.07H8.15c-0.5,0-0.91,0.4-0.91,0.91v8.04c0,0.04,0.03,0.07,0.06,0.07
	h12.18c5.22,0,9.35,1.28,12.38,3.84c3.03,2.52,4.54,5.83,4.54,9.94c0,4.15-1.51,7.46-4.54,9.93C28.88,58.61,24.75,59.87,19.49,59.87
	L19.49,59.87z M7.24,40.54v13.1c0,0.04,0.03,0.07,0.07,0.07h11.52c3.25,0,5.76-0.66,7.54-1.98c1.78-1.32,2.66-3.18,2.66-5.58
	c0-2.4-0.9-4.27-2.7-5.61c-1.8-1.34-4.3-2.01-7.5-2.01H9.55H7.93c-0.38,0-0.69,0.31-0.69,0.68V40.54L7.24,40.54z"/>
<path class="st1" d="M52.8,59.87h-7.24V17.2h7.24v18.08L71.04,17.2h9.28l-19.6,19.16c-0.58,0.54-0.59,1.46-0.01,2l21.74,21.51h-9.87
	L52.8,40.04V59.87L52.8,59.87z"/>
<path class="st1" d="M113.32,59.87h-5.75V17.2h7.24v31.33l25.07-30.99c0.17-0.21,0.43-0.34,0.71-0.34h5.88v42.67h-7.24V28.42
	l-25.2,31.11C113.85,59.74,113.59,59.87,113.32,59.87L113.32,59.87z"/>
<path class="st1" d="M165.23,59.87h-7.24V17.2h7.24v15.91c0,0.5,0.41,0.91,0.91,0.91h22.21c0.5,0,0.91-0.41,0.91-0.91V17.2h7.24
	v42.67h-7.24V41.09c0-0.5-0.41-0.91-0.91-0.91h-22.21c-0.5,0-0.91,0.41-0.91,0.91V59.87L165.23,59.87z"/>
<path class="st1" d="M230.6,59.87h-22.65V17.2h20.93c4.17,0,7.47,0.94,9.91,2.81c2.44,1.87,3.65,4.43,3.65,7.68
	c0,2.11-0.57,3.94-1.71,5.48c-1.14,1.55-2.61,2.64-4.41,3.29c2.9,0.49,5.25,1.75,7.08,3.78c1.82,2.03,2.73,4.57,2.73,7.62
	c0,3.62-1.41,6.52-4.21,8.72C239.16,58.77,235.38,59.87,230.6,59.87L230.6,59.87z M215.19,24.04v10.35h12.44
	c2.41,0,4.29-0.48,5.63-1.43c1.34-0.95,2.01-2.33,2.01-4.11c0-1.79-0.67-3.15-2.01-4.08c-1.34-0.93-3.22-1.4-5.63-1.4h-11.76
	C215.5,23.36,215.19,23.66,215.19,24.04L215.19,24.04z M215.19,41.21v12.5h14.09c2.81,0,5.01-0.6,6.62-1.8
	c1.6-1.2,2.4-2.87,2.4-5.03c0-2.11-0.79-3.74-2.37-4.88c-1.58-1.14-3.8-1.71-6.65-1.71H216.1C215.6,40.3,215.19,40.71,215.19,41.21
	L215.19,41.21z"/>
<path class="st1" d="M288.86,59.87h-33.64V17.2H288v6.16h-24.86c-0.38,0-0.68,0.3-0.68,0.68v9.99h20.8v6.15h-20.12
	c-0.38,0-0.68,0.31-0.68,0.68v12.85h26.4V59.87L288.86,59.87z"/>
<path class="st1" d="M304.66,59.87h-7.24V17.2h7.24v15.91c0,0.5,0.41,0.91,0.91,0.91h22.21c0.5,0,0.91-0.41,0.91-0.91V17.2h7.24
	v42.67h-7.24V41.09c0-0.5-0.41-0.91-0.91-0.91h-22.21c-0.5,0-0.91,0.41-0.91,0.91V59.87L304.66,59.87z"/>
<path class="st1" d="M343.82,23.36V17.2h37.72v6.16h-14.36c-0.5,0-0.91,0.4-0.91,0.91v35.6h-7.24v-35.6c0-0.5-0.41-0.91-0.91-0.91
	H343.82L343.82,23.36z"/>
<polygon class="st2" points="432.48,54.18 435.85,54.2 435.85,37.35 445.88,31.14 451.25,27.8 451.25,49.33 445.88,49.33 
	445.88,33.61 442.51,35.7 442.51,52.7 454.62,52.7 454.62,21.75 445.88,27.17 445.88,16.06 464.49,5.47 464.33,60.01 467.7,60 
	467.7,0 442.51,14.08 442.51,29.26 442.5,29.26 442.25,29.42 432.48,35.47 432.48,54.18 "/>
<path class="st1" d="M419.63,61.6c1.22-0.66,6.19-2.01,9.72-2.03c7.94-0.12,14.5,3.32,17.29,4.26c3.49,1.33,8.06,2.58,10.74,3.06
	c7.67,1.37,16.12-3.68,16.12-3.68c-0.03-0.05-2.29,0.82-8.14,1.22c-5.84,0.41-11.46-2.01-17.96-4.18
	c-6.49-2.18-10.07-4.89-23.97-2.14c-1.53,0.33-3,0.81-5.08,1.6c-4.06-6.03-5.91-12.48-5.91-20.27c0-10.42,4.25-19.87,11.1-26.72
	c6.85-6.85,16.3-11.1,26.72-11.1c3.17,0,6.26,0.39,9.2,1.13c0.78,0.2,1.47,0.4,2.2,0.63c-2.31,1.29-4.61,2.58-6.92,3.87
	c-0.87-0.28-1.86-0.38-2.93-0.43c-0.52-0.02-1.03-0.04-1.56-0.04c-8.99,0-17.16,3.67-23.07,9.58c-5.92,5.92-9.58,14.08-9.58,23.07
	c0,5.92,1.73,11.63,4.51,16.42c4.04-1.25,7.71-1.61,10.38-1.68l3.37,0.02c13.03,0.57,17.76,5.44,28.47,5.81c0,0,3.37-0.01,3.37-0.01
	c0.57-0.01,1.13-0.04,1.6-0.07c11.37-0.64,13.71-1.64,13.71-1.64c-1.67,2.88-3.7,5.53-6.04,7.86c-6.85,6.85-16.3,11.09-26.72,11.09
	c-10.42,0-19.87-4.25-26.72-11.09C422.11,64.74,420.81,63.22,419.63,61.6L419.63,61.6z"/>
<path class="st1" d="M469.47,6.89c2.74,1.63,5.26,3.59,7.5,5.83c6.85,6.85,11.09,16.3,11.09,26.72c0,4.32-0.73,8.48-2.08,12.35
	c-0.88,2.34-1.8,4.45-1.8,4.45s-0.77,0.35-2.25,0.74c-1.48,0.39-4.76,0.63-4.76,0.63s1.16-1.5,1.59-2.16
	c0.44-0.67,0.91-1.55,1.36-2.5c2.01-4.24,2.77-8.52,2.77-13.51c0-8.99-3.67-17.16-9.58-23.07c-1.2-1.2-2.48-2.3-3.85-3.3
	c-0.58-0.38-1.17-0.78-1.77-1.08V5.86L469.47,6.89L469.47,6.89z"/>
</svg>
