<svg version="1.1" xmlns="http://www.w3.org/2000/svg" xmlns:xlink="http://www.w3.org/1999/xlink" viewBox="0 0 192 192"><g fill="none" fill-rule="nonzero" stroke="none" stroke-width="1" stroke-linecap="butt" stroke-linejoin="miter" stroke-miterlimit="10" stroke-dasharray="" stroke-dashoffset="0" font-family="none" font-weight="none" font-size="none" text-anchor="none" style="mix-blend-mode: normal"><path d="M0,192v-192h192v192z" fill="none"></path><g fill="#2e64d0"><path d="M96,8c-26.512,0 -48,21.488 -48,48c0,22.704 21.04162,53.9335 35.26562,72.4375c6.448,8.39199 19.02875,8.39199 25.46875,0c14.224,-18.50401 35.26562,-49.7335 35.26562,-72.4375c0,-26.512 -21.488,-48 -48,-48zM96,38.85938c9.472,0 17.14062,7.66862 17.14062,17.14062c0,9.464 -7.67662,17.14062 -17.14062,17.14062c-9.464,0 -17.14062,-7.66862 -17.14062,-17.14062c0,-9.472 7.66862,-17.14062 17.14062,-17.14062zM49.23438,120c-6.544,0 -12.42738,3.9905 -14.85938,10.0625l-9.59375,24c-4.2,10.51201 3.52375,21.9375 14.84375,21.9375h112.75c11.32,0 19.04375,-11.4255 14.84375,-21.9375l-9.59375,-24c-2.432,-6.072 -8.31538,-10.0625 -14.85938,-10.0625h-6.76562c-4.416,0 -8,3.584 -8,8c0,4.416 3.584,8 8,8h6.78125l7.40626,18.51562c1.048,2.632 -0.88675,5.48438 -3.71875,5.48438h-100.9375c-2.832,0 -4.75912,-2.85238 -3.70312,-5.48438l7.39063,-18.51562h6.78125c4.416,0 8,-3.584 8,-8c0,-4.416 -3.584,-8 -8,-8z"></path></g></g></svg>