<svg version="1.1" xmlns="http://www.w3.org/2000/svg" xmlns:xlink="http://www.w3.org/1999/xlink" viewBox="0 0 192 192"><g fill="none" fill-rule="nonzero" stroke="none" stroke-width="1" stroke-linecap="butt" stroke-linejoin="miter" stroke-miterlimit="10" stroke-dasharray="" stroke-dashoffset="0" font-family="none" font-weight="none" font-size="none" text-anchor="none" style="mix-blend-mode: normal"><path d="M0,192v-192h192v192z" fill="none"></path><g fill="#2e64d0"><g id="surface1"><path d="M45.99,15.525c0,0 -8.37,0 -17.7,4.425v-0.015c-7.14,3.39 -13.155,8.34 -16.05,12.39c-0.855,1.11 -1.035,2.61 -0.48,3.885c0.57,1.29 1.785,2.16 3.195,2.295c1.395,0.12 2.745,-0.54 3.525,-1.71c1.38,-1.935 7.29,-7.155 13.11,-9.915c7.755,-3.675 14.4,-3.675 14.4,-3.675c1.38,0.015 2.67,-0.705 3.375,-1.905c0.69,-1.2 0.69,-2.67 0,-3.87c-0.705,-1.2 -1.995,-1.92 -3.375,-1.905zM122.355,19.2c-8.865,-0.03 -19.53,0.345 -31.395,1.875c-15.765,2.025 -30,5.16 -43.53,9.585c-22.98,7.485 -30.6,16.275 -33.465,19.575l-0.27,0.315c-5.67,6.495 1.545,29.655 1.605,29.88c1.71,5.25 6.045,7.89 9.9,7.89c0.78,0 1.53,-0.105 2.235,-0.315c1.44,-0.435 7.11,-2.685 15.585,-6.045c4.17,-1.665 7.86,-3.135 9.06,-3.57c3.27,-1.2 5.745,-4.65 6.6,-9.21c0.42,-2.13 2.745,-11.865 4.245,-18.06c3.915,-1.575 14.775,-5.445 31.035,-7.545c16.245,-2.1 27.765,-1.275 31.95,-0.84c4.29,7.215 10.485,17.64 10.77,18.075c2.07,3.165 4.8,5.025 7.695,5.25c1.305,0.105 5.55,0.645 10.245,1.23c8.64,1.08 14.415,1.785 16.05,1.83c4.215,0.075 9.375,-3.855 9.75,-10.41c0.015,-0.24 1.02,-23.97 -6.15,-28.83c0,0 -0.705,-0.48 -1.11,-0.735c-4.455,-2.91 -15.825,-9.18 -42.54,-9.825c-2.55,-0.075 -5.295,-0.12 -8.265,-0.12zM72.96,61.44c-2.115,0 -3.84,1.725 -3.84,3.84v9.855c-3.885,3.72 -16.545,16.065 -31.71,33.72c-12.72,14.805 -14.4,25.155 -14.37,33.33c0.03,7.185 3.735,30.24 3.9,31.215c0.285,1.875 1.89,3.24 3.78,3.24h19.2c2.115,0 3.84,-1.725 3.84,-3.84v-3.84h92.16v3.84c0,2.115 1.725,3.84 3.84,3.84h19.2c1.89,0 3.495,-1.365 3.78,-3.24c0.165,-0.975 3.885,-24.075 3.9,-31.32c0.015,-8.13 -1.665,-18.45 -14.37,-33.225c-15.165,-17.655 -27.825,-30 -31.71,-33.72v-9.855c0,-2.115 -1.725,-3.84 -3.84,-3.84h-11.52c-2.115,0 -3.84,1.725 -3.84,3.84v7.68h-23.04v-7.68c0,-2.115 -1.725,-3.84 -3.84,-3.84zM145.905,73.125c-1.635,-0.015 -3.105,1.02 -3.645,2.55c-0.555,1.545 -0.06,3.255 1.2,4.29c3.36,2.775 8.13,4.17 13.74,4.515c6.75,0.405 9.9,-0.375 13.32,-1.68c1.98,-0.78 2.955,-3 2.19,-4.98c-0.765,-1.98 -2.985,-2.97 -4.965,-2.205c-3.18,1.23 -3.855,1.575 -10.065,1.185c-4.47,-0.27 -8.025,-1.68 -9.315,-2.76c-0.69,-0.585 -1.56,-0.915 -2.46,-0.915zM69.12,96h15.36v7.68h-15.36zM92.16,96h15.36v7.68h-15.36zM115.2,96h15.36v7.68h-15.36zM69.12,111.36h15.36v7.68h-15.36zM92.16,111.36h15.36v7.68h-15.36zM115.2,111.36h15.36v7.68h-15.36zM69.12,126.72h15.36v7.68h-15.36zM92.16,126.72h15.36v7.68h-15.36zM115.2,126.72h15.36v7.68h-15.36z"></path></g></g></g></svg>