<svg xmlns="http://www.w3.org/2000/svg" viewBox="0 0 24 25">
    <path fill="#fff" d="M 3 2 L 3 10 L 5 10 L 5 9 L 9 9 L 9 16 C 9 18.749516 11.250484 21 14 21 L 19 21 L 19 22 L 21 22 L 21 14 L 19 14 L 19 15 L 15 15 L 15 8 C 15 5.2504839 12.749516 3 10 3 L 5 3 L 5 2 L 3 2 z M 5 5 L 10 5 C 11.668484 5 13 6.3315161 13 8 L 13 11 L 11 11 L 11 9 C 11 7.9069372 10.093063 7 9 7 L 5 7 L 5 5 z M 11 13 L 13 13 L 13 15 C 13 16.093063 13.906937 17 15 17 L 19 17 L 19 19 L 14 19 C 12.331516 19 11 17.668484 11 16 L 11 13 z" font-weight="400" font-family="sans-serif" white-space="normal" overflow="visible"></path>
</svg>